<svg xmlns="http://www.w3.org/2000/svg" viewBox="0 0 2880 320" preserveAspectRatio="none" aria-hidden="true">
  <path fill="currentColor" d="
    M0,320 L0,180
    C 80,150 160,120 240,140
    C 320,160 360,210 440,200
    C 520,190 560,130 640,110
    C 720,90  780,100 860,150
    C 940,200 1020,220 1100,200
    C 1180,180 1260,130 1340,150
    C 1380,160 1420,180 1440,180
    C 1520,150 1600,120 1680,140
    C 1760,160 1800,210 1880,200
    C 1960,190 2000,130 2080,110
    C 2160,90  2220,100 2300,150
    C 2380,200 2460,220 2540,200
    C 2620,180 2700,130 2780,150
    C 2820,160 2860,180 2880,180
    L 2880,320 Z"/>
  <path fill="currentColor" opacity="0.5" d="
    M0,320 L0,230
    C 120,210 220,250 340,240
    C 460,230 540,200 660,210
    C 780,220 880,260 1000,250
    C 1120,240 1240,210 1360,220
    C 1400,224 1430,228 1440,230
    C 1560,210 1660,250 1780,240
    C 1900,230 1980,200 2100,210
    C 2220,220 2320,260 2440,250
    C 2560,240 2680,210 2800,220
    C 2840,224 2870,228 2880,230
    L 2880,320 Z"/>
</svg>
