<svg xmlns="http://www.w3.org/2000/svg" viewBox="0 0 2880 320" preserveAspectRatio="none" aria-hidden="true">
  <path fill="currentColor" d="
    M0,320 L0,200
    C 180,170 360,230 540,210
    C 720,190 900,150 1080,170
    C 1260,190 1380,220 1440,210
    C 1620,180 1800,240 1980,220
    C 2160,200 2340,160 2520,180
    C 2700,200 2820,230 2880,220
    L 2880,320 Z"/>
  <path fill="currentColor" opacity="0.45" d="
    M0,320 L0,260
    C 240,240 480,280 720,270
    C 960,260 1200,230 1440,250
    C 1680,240 1920,280 2160,270
    C 2400,260 2640,230 2880,250
    L 2880,320 Z"/>
</svg>
